<?xml version="1.0" encoding="UTF-8" standalone="no"?>
<!DOCTYPE svg PUBLIC "-//W3C//DTD SVG 1.1//EN" "http://www.w3.org/Graphics/SVG/1.1/DTD/svg11.dtd">
<svg width="100%" height="100%" viewBox="0 0 359 359" version="1.1" xmlns="http://www.w3.org/2000/svg" xmlns:xlink="http://www.w3.org/1999/xlink" xml:space="preserve" xmlns:serif="http://www.serif.com/" style="fill-rule:evenodd;clip-rule:evenodd;stroke-linecap:round;stroke-linejoin:round;stroke-miterlimit:1.5;">
    <g transform="matrix(1.33333,0,0,1.33333,-8964.54,-5666.7)">
        <g transform="matrix(0.167947,0,0,0.167947,5678.59,3651.15)">
            <g transform="matrix(2.01936,0,0,2.01936,3628.31,1972.6)">
                <path d="M1910.14,1503.69C1845.44,1550.52 1765.95,1578.13 1680.06,1578.13C1463.14,1578.13 1287.03,1402.01 1287.03,1185.09C1287.03,968.17 1463.14,792.057 1680.06,792.057C1896.98,792.057 2073.1,968.17 2073.1,1185.09C2073.1,1280.69 2038.89,1368.37 1982.06,1436.54L2008.44,1520.64C2009,1522.41 2008.55,1524.35 2007.27,1525.7C2006,1527.05 2004.09,1527.6 2002.28,1527.14L1910.14,1503.69Z" style="fill:white;stroke:black;stroke-width:6.14px;"/>
            </g>
            <g transform="matrix(1,0,0,1,-247.508,-182.442)">
                <g transform="matrix(516.667,0,0,516.667,7863.76,4519.11)">
                </g>
                <text x="6627.89px" y="4519.11px" style="font-family:'BMJUAOTF', 'BM Jua', serif;font-size:516.667px;">D<tspan x="6908.96px 7213.28px 7536.71px " y="4519.11px 4519.11px 4519.11px ">OMO</tspan></text>
            </g>
            <g transform="matrix(8.76752,0,0,8.76752,-46531.5,-34062.9)">
                <path d="M6164.51,4391.89C6164.51,4414.49 6146.16,4432.84 6123.56,4432.84C6100.96,4432.84 6082.61,4414.49 6082.61,4391.89" style="fill:white;stroke:black;stroke-width:5.66px;"/>
            </g>
        </g>
    </g>
</svg>
